<svg id="Слой_1" data-name="Слой 1" xmlns="http://www.w3.org/2000/svg" viewBox="0 0 663.47 282.44"><defs><style>.cls-1{fill:#fff;}</style></defs><path class="cls-1" d="M414.25,315.44v-.08c1.1-6,2.39-12,3.24-18.06,1.3-9.24,1.8-18.5,5.19-27.49,3.86-10.25,6-21.16,9.59-31.51,4.12-11.71,12.29-14.88,23.37-9.93,4.75,2.12,6.52,5.42,4.36,10.51-4.54,10.69-9.95,21.15-13.16,32.23s-4.3,23.07-6.26,34.65c-.53,3.11-.87,6.26-1.3,9.39-.36,3.31.35,2.3,1.88,1.17.86-1,1.88-1.9,2.82-2.86s4.67-8.72,5.84-11.51c5.71-13.58,11.26-27.22,16.95-40.81a59.66,59.66,0,0,1,4.1-7.41c5.88-9.87,14.23-7.49,21.58-3.75,5.32,2.71,4.62,7.5,2.79,12a68,68,0,0,0-4.5,34.63c.41,3.33,1.32,6.61,2,9.91.39,1.92.79,2.17,1.9.59,1.77-3,3.92-5.78,5.25-8.94,10.6-25.09,16.24-51.45,19.74-78.34a12.69,12.69,0,0,0-.08-4.56c-1.14-4.47-1.56-8.47,4.5-9.33,7.73-1.11,12.63,1.85,12.38,8.62a299.22,299.22,0,0,1-2.9,32.6c-3.38,23.17-9,45.75-20.8,66.3a109.35,109.35,0,0,1-10.44,15c-5.22,6.38-11.51,7.73-19.33,5s-12.11-8.3-12.13-16.6c0-8.8.27-17.6.46-27.08a.45.45,0,0,0-.86-.21,66.92,66.92,0,0,0-2.9,6.44c-4,11.3-8.12,22.58-11.77,34a22.28,22.28,0,0,1-8.64,11.75c-5.4,3.63-12.79,6.46-19.38,4.12-6.28-2.23-13.88-10.36-13.74-17.32Z" transform="translate(-89.21 -129.64)"/><path class="cls-1" d="M588.83,130.06a148.56,148.56,0,0,1,36.77,7.57c36.95,12.71,63.36,36.05,79.56,68.86a31.36,31.36,0,0,1,1.65,5.64c.09.34.39,1.13-.39.43-5-4.5-8.53-7.77-13.33-12.15-.24-.21-1.21-1.22-.81-.09,1,2.77,1.58,4.67,2.22,6.57,1.73,4.35.62,3.51-1.39.71-2.07-2.65-4.23-5.25-6.2-8-12.16-16.76-26.39-31.68-45.7-41.95-44.57-23.69-95.28-20-137.63,9.14-15.51,10.67-24.65,25.38-34.85,39.7-3.23,4.54-9,7.82-14.27,10.78-2.48,1.4-6.2.25-4.33-3.91,10.58-23.48,25.74-43.81,48.43-59.12a147.41,147.41,0,0,1,56.3-22.65A135.57,135.57,0,0,1,588.83,130.06Z" transform="translate(-89.21 -129.64)"/><path class="cls-1" d="M581.32,412.07a150.8,150.8,0,0,1-26.77-2q-5.25-.87-10.44-2.11c-37.8-9-65.95-28.73-84.67-58.1a24.9,24.9,0,0,1-1.92-4.7.44.44,0,0,1,.66-.53l14.16,10.25c.27.19.54,0,.41-.29-1.15-2.51-1.93-4.22-2.72-5.93-1.25-2.93-.49-2.36,1.33-.78,2.27,2.32,4.63,4.58,6.81,7,13.43,14.7,28.77,27.52,48.82,35.61,46.25,18.65,96.49,11.26,136.39-19.22C678,360.07,686,345.63,695,331.47c2.86-4.49,8.38-8,13.37-11.17,2.37-1.5,6.16-.72,4.62,3.31-8.69,22.74-22.2,42.9-43.61,59C644,401.57,612.68,411.62,581.32,412.07Z" transform="translate(-89.21 -129.64)"/><path class="cls-1" d="M672.27,292.58c1.33-2.89,2.77-5.73,4-8.69,5.24-13.17,10.33-26.41,15.64-39.55a56.73,56.73,0,0,1,5.14-9.83c3.91-6,10.13-7,17.32-3.14,5.81,3.08,4.34,7.74,2.74,12.49a59.93,59.93,0,0,0-2.24,31.57,39.06,39.06,0,0,0,1.08,4.72c.48,1.45,1.07,2.23,2.36.48a29.8,29.8,0,0,0,4-7c8.32-21.51,13.12-43.86,15.56-66.74a16.3,16.3,0,0,0,0-5.87c-1.28-4.66-.68-7.76,4.92-8.24,6.54-.55,9.81,1.54,9.93,7.26.63,31.77-5.46,62.08-20.53,90.27a53.34,53.34,0,0,1-8.29,10.92c-5,5.36-11.41,5.11-17.61,2.72s-9.05-7.19-9-13.86c.09-7.21,0-14.42,0-22.95a.46.46,0,0,0-.87-.19c-1.7,3.79-3.15,6.8-4.31,9.93-3.71,10-7.05,20.19-11,30.13-3.39,8.63-7.71,11.38-14.54,10.25C656.54,315.6,649,309,648.88,300.73a201.56,201.56,0,0,1,15.43-81.17c3.13-7.62,14.58-10,20.28-4.11,1.62,1.67,1.94,6.28.85,8.6-7.33,15.53-12.61,31.66-14.89,48.64-.86,6.42-.14,13.06-.14,19.6C670.69,294.36,671.39,294.4,672.27,292.58Z" transform="translate(-89.21 -129.64)"/><path class="cls-1" d="M641.73,269.57a.28.28,0,0,1,0,.09c0,23.26-13.48,44.22-33.88,51.77-20.83,7.71-45.18,1.7-58.18-15.32-14.06-18.4-13.7-38.73-5.61-59a50.64,50.64,0,0,1,43.41-31.61c4.69-.34,9.91-1.37,12.57,4.68.46,1.05,2.93,1.52,4.54,1.71,17.34,2,28.63,11.2,33.32,27.88C639.72,256.21,640.49,263,641.73,269.57Zm-18,1.92v0a41.47,41.47,0,0,0,0-4.88c-1.25-13.85-5.88-26.7-23.26-28.47-2-.2-3.77-1.86-5.72-2.63-2.28-.89-4.85-2.57-7-2.16-18.4,3.63-29.1,17.84-29.52,38.59-.35,17.44,7.93,31.06,21.5,35.48C599.46,313.8,626.17,298.27,623.76,271.49Z" transform="translate(-89.21 -129.64)"/><path class="cls-1" d="M100.35,271.51,89.21,230.64h6l5.21,20.68c1.3,5.09,2.48,10.19,3.26,14.13h.13c.71-4.06,2.08-8.91,3.58-14.19l5.86-20.62h5.93l5.34,20.74c1.24,4.85,2.41,9.7,3.06,14h.13c.91-4.49,2.15-9,3.52-14.13L137,230.64h5.8l-12.44,40.87h-5.93l-5.53-21.28A116.4,116.4,0,0,1,116,236.89h-.13a122.06,122.06,0,0,1-3.38,13.34l-6.26,21.28Z" transform="translate(-89.21 -129.64)"/><path class="cls-1" d="M171,252.35H153.94v14.74h19v4.42H148.28V230.64H172v4.43h-18V248H171Z" transform="translate(-89.21 -129.64)"/><path class="cls-1" d="M231.12,253.56c-.33-5.69-.72-12.55-.66-17.64h-.19c-1.5,4.79-3.32,9.88-5.54,15.52L217,271.27h-4.3l-7.1-19.46c-2.08-5.76-3.84-11-5.08-15.89h-.13c-.13,5.09-.45,12-.84,18.07l-1.18,17.52H193L196,230.64h7.23l7.49,19.77c1.82,5,3.32,9.52,4.43,13.77h.19c1.11-4.13,2.67-8.61,4.63-13.77l7.81-19.77H235l2.74,40.87h-5.54Z" transform="translate(-89.21 -129.64)"/><path class="cls-1" d="M252.93,258.66l-4.56,12.85h-5.86l14.91-40.87h6.84l15,40.87h-6.06l-4.69-12.85Zm14.39-4.13L263,242.77c-1-2.67-1.63-5.09-2.28-7.46h-.13c-.65,2.43-1.36,4.91-2.21,7.4l-4.3,11.82Z" transform="translate(-89.21 -129.64)"/><path class="cls-1" d="M285.68,230.64h5.67v19.71h.2c1.17-1.58,2.34-3,3.45-4.36l13.41-15.35h7L299.56,248l17.13,23.52H310l-14.46-20.07-4.17,4.49v15.58h-5.67Z" transform="translate(-89.21 -129.64)"/><path class="cls-1" d="M343.71,252.35H326.65v14.74h19v4.42H321V230.64h23.71v4.43h-18V248h17.06Z" transform="translate(-89.21 -129.64)"/><path class="cls-1" d="M209.29,288H195.94v-4.49h32.5V288H215v36.38h-5.74Z" transform="translate(-89.21 -129.64)"/><path class="cls-1" d="M239,283.54v17.1h21.23v-17.1H266v40.87h-5.73V305.25H239v19.16h-5.67V283.54Z" transform="translate(-89.21 -129.64)"/><path class="cls-1" d="M281.45,283.54v40.87h-5.67V283.54Z" transform="translate(-89.21 -129.64)"/><path class="cls-1" d="M291.35,324.41V283.54h6.18l14.07,20.68a112,112,0,0,1,7.88,13.28l.13-.06c-.52-5.46-.65-10.43-.65-16.8v-17.1h5.34v40.87h-5.73l-13.94-20.74a126.69,126.69,0,0,1-8.2-13.64l-.2.06c.33,5.15.46,10.06.46,16.86v17.46Z" transform="translate(-89.21 -129.64)"/><path class="cls-1" d="M367.61,322.59a43.6,43.6,0,0,1-13.48,2.24c-6.65,0-12.12-1.57-16.42-5.39-3.77-3.4-6.12-8.86-6.12-15.22.07-12.19,9.06-21.1,23.77-21.1A28.92,28.92,0,0,1,366.31,285l-1.37,4.3a24.25,24.25,0,0,0-9.71-1.76c-10.68,0-17.65,6.19-17.65,16.43s6.71,16.5,16.94,16.5c3.71,0,6.25-.49,7.55-1.09V307.19h-8.92v-4.25h14.46Z" transform="translate(-89.21 -129.64)"/><path class="cls-1" d="M375.49,318a21.13,21.13,0,0,0,10.16,2.67c5.79,0,9.18-2.85,9.18-7,0-3.82-2.35-6-8.27-8.13-7.17-2.36-11.6-5.82-11.6-11.58,0-6.37,5.67-11.1,14.2-11.1a21.2,21.2,0,0,1,9.71,2l-1.57,4.31a18.43,18.43,0,0,0-8.33-1.94c-6,0-8.27,3.33-8.27,6.12,0,3.82,2.67,5.7,8.72,7.89,7.43,2.66,11.21,6,11.21,12,0,6.31-5,11.77-15.38,11.77-4.23,0-8.85-1.16-11.2-2.61Z" transform="translate(-89.21 -129.64)"/></svg>