<svg xmlns="http://www.w3.org/2000/svg" xmlns:xlink="http://www.w3.org/1999/xlink" version="1.1" style="" xml:space="preserve" width="246" height="205"><rect id="backgroundrect" width="100%" height="100%" x="0" y="0" fill="none" stroke="none"/>
<style type="text/css">
	.st0{fill:#5566AF;}
	.st1{fill:#80A0D3;}
</style>






<g class="currentLayer" style=""><title>Layer 1</title><path class="st0" d="M0.16135742187498187,134.98289085388183 c0,-0.020000000000000007 0,-0.040000000000000015 0.010000000000000004,-0.05000000000000002 c0.8,-4.37 1.73,-8.73 2.35,-13.12 c0.9400000000000002,-6.72 1.3,-13.44 3.77,-19.97 c2.81,-7.45 4.33,-15.37 6.97,-22.89 c2.99,-8.51 8.93,-10.81 16.98,-7.22 c3.45,1.54 4.74,3.94 3.17,7.6400000000000015 c-3.3,7.77 -7.23,15.36 -9.56,23.41 c-2.36,8.15 -3.12,16.76 -4.55,25.17 c-0.3800000000000001,2.26 -0.6300000000000002,4.55 -0.9400000000000002,6.82 c-0.27,2.4 0.25,1.6700000000000004 1.36,0.8600000000000002 c0.6300000000000002,-0.7200000000000002 1.37,-1.3900000000000001 2.05,-2.08 c0.6900000000000004,-0.7100000000000002 3.39,-6.34 4.25,-8.37 c4.15,-9.86 8.18,-19.78 12.31,-29.64 c0.79,-1.8800000000000003 1.9300000000000002,-3.62 2.98,-5.38 c4.27,-7.17 10.34,-5.45 15.68,-2.73 c3.8600000000000003,1.97 3.35,5.45 2.03,8.7 c-3.3200000000000003,8.12 -4.35,16.5 -3.27,25.16 c0.3000000000000001,2.42 0.9600000000000002,4.8 1.46,7.2 c0.28,1.3900000000000001 0.5800000000000002,1.58 1.3800000000000001,0.4300000000000001 c1.29,-2.16 2.85,-4.2 3.81,-6.49 c7.7,-18.23 11.8,-37.38 14.34,-56.91 c0.14,-1.09 0.21000000000000005,-2.27 -0.06000000000000002,-3.3200000000000003 c-0.8300000000000002,-3.24 -1.13,-6.15 3.27,-6.78 c5.62,-0.8 9.18,1.35 9,6.26 c-0.2900000000000001,7.91 -0.9600000000000002,15.85 -2.11,23.68 c-2.46,16.84 -6.57,33.24 -15.11,48.17 c-2.19,3.83 -4.78,7.49 -7.58,10.91 c-3.79,4.63 -8.37,5.62 -14.04,3.62 c-5.73,-2.02 -8.8,-6.03 -8.82,-12.06 c-0.020000000000000007,-6.39 0.2,-12.79 0.3400000000000002,-19.67 c0.010000000000000004,-0.3500000000000001 -0.4700000000000001,-0.4700000000000001 -0.6300000000000002,-0.15000000000000005 c-0.8,1.6600000000000001 -1.56,3.13 -2.11,4.67 c-2.92,8.21 -5.9,16.41 -8.56,24.71 c-1.11,3.46 -3.26,6.51 -6.27,8.54 c-3.93,2.64 -9.29,4.69 -14.08,2.99 c-4.5600000000000005,-1.62 -10.08,-7.53 -9.98,-12.58 L0.16135742187498187,134.98289085388183 z" id="svg_1"/><path class="st1" d="M127.00135742187501,0.30289085388182013 c9.15,0.7000000000000002 18.23,2.58 26.71,5.5 c26.84,9.23 46.03,26.19 57.8,50.03 c0.53,1.07 0.7200000000000002,2.27 1.2,4.1 c0.06000000000000002,0.24000000000000005 0.28,0.8200000000000002 -0.2900000000000001,0.3100000000000001 c-3.62,-3.27 -6.2,-5.6400000000000015 -9.69,-8.82 c-0.17,-0.15000000000000005 -0.8700000000000002,-0.8900000000000002 -0.5900000000000002,-0.07 c0.7100000000000002,2.01 1.15,3.4 1.61,4.77 c1.26,3.16 0.45,2.55 -1.01,0.52 c-1.51,-1.9300000000000002 -3.08,-3.8200000000000003 -4.51,-5.79 c-8.83,-12.17 -19.17,-23.02 -33.2,-30.48 c-32.37,-17.21 -69.22,-14.52 -99.98,6.6400000000000015 c-11.27,7.75 -17.91,18.44 -25.32,28.85 c-2.35,3.3 -6.5600000000000005,5.68 -10.37,7.83 c-1.81,1.02 -4.51,0.18000000000000005 -3.15,-2.84 c7.68,-17.06 18.7,-31.83 35.18,-42.96 c12.21,-8.24 26.33,-13.85 40.9,-16.45 C110.34135742187499,0.012890853881856403 118.701357421875,-0.3271091461181755 127.00135742187501,0.30289085388182013 z" id="svg_2"/><path class="st1" d="M121.54135742187498,205.18289085388187 c-6.52,0.09000000000000004 -13.03,-0.3900000000000001 -19.45,-1.45 c-2.54,-0.4200000000000001 -5.07,-0.93 -7.58,-1.53 c-27.47,-6.53 -47.92,-20.88 -61.51,-42.21 c-0.5700000000000002,-0.8900000000000002 -0.8500000000000002,-1.92 -1.4,-3.41 c-0.11000000000000003,-0.3000000000000001 0.23,-0.5700000000000002 0.4800000000000001,-0.3900000000000001 c3.68,2.66 6.69,4.84 10.29,7.45 c0.19000000000000006,0.14 0.3900000000000001,0 0.3000000000000001,-0.21000000000000005 c-0.8400000000000002,-1.82 -1.4,-3.07 -1.97,-4.3100000000000005 c-0.91,-2.13 -0.3600000000000001,-1.7200000000000002 0.9600000000000002,-0.5700000000000002 c1.6500000000000004,1.6800000000000004 3.36,3.3200000000000003 4.94,5.05 c9.76,10.68 20.91,20 35.47,25.87 c33.6,13.55 70.1,8.18 99.09,-13.96 c10.620000000000001,-8.11 16.4,-18.6 22.96,-28.9 c2.08,-3.26 6.09,-5.8100000000000005 9.71,-8.11 c1.7200000000000002,-1.09 4.47,-0.52 3.36,2.4 c-6.3100000000000005,16.53 -16.13,31.17 -31.68,42.83 C167.10135742187498,197.55289085388188 144.321357421875,204.85289085388183 121.54135742187498,205.18289085388187 z" id="svg_3"/><path class="st0" d="M187.62135742187502,118.37289085388181 c0.9600000000000002,-2.1 2.01,-4.17 2.87,-6.3100000000000005 c3.81,-9.57 7.5,-19.19 11.37,-28.74 c1,-2.48 2.27,-4.9 3.73,-7.14 c2.84,-4.33 7.36,-5.06 12.58,-2.29 c4.22,2.24 3.15,5.62 1.99,9.08 c-2.46,7.3100000000000005 -3.23,14.66 -1.6300000000000003,22.93 c0.22000000000000006,1.12 0.4100000000000001,2.29 0.79,3.43 c0.3500000000000001,1.05 0.78,1.62 1.71,0.3500000000000001 c1.4100000000000001,-1.9300000000000002 2.2800000000000002,-3.48 2.9,-5.08 c6.05,-15.620000000000001 9.53,-31.86 11.31,-48.49 c0.15000000000000005,-1.4100000000000001 0.3500000000000001,-2.94 -0.020000000000000007,-4.27 c-0.93,-3.38 -0.4900000000000001,-5.63 3.58,-5.98 c4.75,-0.4100000000000001 7.13,1.12 7.21,5.27 c0.46,23.09 -3.96,45.11 -14.91,65.58 c-1.55,2.9 -3.77,5.51 -6.03,7.93 c-3.64,3.9 -8.29,3.71 -12.79,1.97 c-4.42,-1.71 -6.58,-5.22 -6.52,-10.06 c0.06000000000000002,-5.24 0.020000000000000007,-10.48 0.020000000000000007,-16.68 c0,-0.3500000000000001 -0.4900000000000001,-0.46 -0.6300000000000002,-0.14 c-1.24,2.75 -2.29,4.94 -3.13,7.21 c-2.7,7.28 -5.12,14.67 -7.96,21.89 c-2.46,6.27 -5.6,8.27 -10.56,7.45 c-7.3,-1.21 -12.75,-6.01 -12.870000000000001,-12.01 c-0.3900000000000001,-20.42 3.46,-40.1 11.21,-58.97 c2.27,-5.54 10.59,-7.29 14.74,-2.99 c1.17,1.22 1.4100000000000001,4.57 0.6200000000000002,6.25 c-5.32,11.28 -9.16,23 -10.81,35.34 c-0.6300000000000002,4.67 -0.1,9.49 -0.1,14.24 C186.47135742187498,119.67289085388182 186.98135742187497,119.70289085388185 187.62135742187502,118.37289085388181 z" id="svg_4"/><path class="st0" d="M165.43135742187502,101.66289085388183 c0,0.020000000000000007 0.010000000000000004,0.040000000000000015 0.010000000000000004,0.06000000000000002 c-0.010000000000000004,16.9 -9.8,32.13 -24.61,37.61 c-15.13,5.6 -32.82,1.23 -42.27,-11.12 c-10.22,-13.37 -9.96,-28.14 -4.08,-42.88 c5.21,-13.05 17.52,-21.96 31.53,-22.96 c3.41,-0.25 7.2,-0.99 9.13,3.4 c0.3300000000000001,0.7600000000000002 2.13,1.1 3.3,1.24 c12.6,1.49 20.8,8.14 24.21,20.26 C163.97135742187498,91.95289085388185 164.531357421875,96.85289085388183 165.43135742187502,101.66289085388183 zM152.37135742187502,103.05289085388182 c0,-0.010000000000000004 0,-0.020000000000000007 0,-0.030000000000000013 c0,-0.4 0.12000000000000002,-1.99 -0.020000000000000007,-3.55 c-0.91,-10.06 -4.27,-19.4 -16.9,-20.68 c-1.4300000000000002,-0.15000000000000005 -2.73,-1.35 -4.15,-1.9100000000000001 c-1.6600000000000001,-0.6500000000000002 -3.52,-1.87 -5.05,-1.57 c-13.37,2.63 -21.14,12.96 -21.44,28.03 c-0.25,12.67 5.76,22.57 15.620000000000001,25.78 C134.72135742187498,133.79289085388183 154.131357421875,122.50289085388181 152.37135742187502,103.05289085388182 z" id="svg_5"/></g></svg>