<svg width="40" height="40" viewBox="0 0 40 40" fill="none" xmlns="http://www.w3.org/2000/svg">
<path d="M32.5 36.25C31.1194 36.25 30 35.1306 30 33.75H26.875C26.875 36.8512 29.3988 39.375 32.5 39.375C35.6012 39.375 38.125 36.8512 38.125 33.75H35C35 35.1306 33.8806 36.25 32.5 36.25Z" fill="#38D0C3"/>
<path d="M6.87063 33.75H6.25V35C6.25 35.6906 5.69062 36.25 5 36.25C4.30938 36.25 3.75 35.6906 3.75 35V33.75H3.12937C2.34875 34.3356 1.875 35.2619 1.875 36.25C1.875 37.9731 3.27688 39.375 5 39.375C6.72312 39.375 8.125 37.9731 8.125 36.25C8.125 35.2619 7.65125 34.3356 6.87063 33.75Z" fill="#38D0C3"/>
<path d="M35.625 5.625H31.875C31.1856 5.625 30.625 5.06437 30.625 4.375V3.125C30.625 2.43562 31.1856 1.875 31.875 1.875H35.625C36.3144 1.875 36.875 2.43562 36.875 3.125V4.375C36.875 5.06437 36.3144 5.625 35.625 5.625Z" fill="#38D0C3"/>
<path d="M28.125 5.625H24.375C23.6856 5.625 23.125 5.06437 23.125 4.375V3.125C23.125 2.43562 23.6856 1.875 24.375 1.875H28.125C28.8144 1.875 29.375 2.43562 29.375 3.125V4.375C29.375 5.06437 28.8144 5.625 28.125 5.625Z" fill="#38D0C3"/>
<path d="M16.25 11.25L17.375 9.75C19.0787 7.47813 20 4.715 20 1.875C20 1.53 19.72 1.25 19.375 1.25H10.625C10.28 1.25 10 1.53 10 1.875C10 4.715 10.9213 7.47813 12.625 9.75L13.75 11.25H16.25Z" fill="#38D0C3"/>
<path d="M28.2408 24.375C28.4996 25.1006 29.1871 25.625 30.0008 25.625H36.2508C37.2846 25.625 38.1258 24.7838 38.1258 23.75V14.375C38.8152 14.375 39.3758 13.8144 39.3758 13.125V11.875C39.3758 11.1856 38.8152 10.625 38.1258 10.625H38.0833C37.8846 9.13375 36.9821 7.83313 35.6258 7.12125V5.625H34.3758V6.875H33.1258V5.625H31.8758V7.12062C31.0733 7.5425 30.4333 8.17 30.0008 8.9225C29.5683 8.17 28.9283 7.5425 28.1258 7.12062V5.625H26.8758V6.875H25.6258V5.625H24.3758V7.12062C23.0196 7.83312 22.1171 9.13313 21.9183 10.625H20.6258C19.9364 10.625 19.3758 11.1856 19.3758 11.875V13.125C19.3758 13.8144 19.9364 14.375 20.6258 14.375V29.375H18.0108C18.0808 29.1787 18.1258 28.97 18.1258 28.75V23.125C18.8152 23.125 19.3758 22.5644 19.3758 21.875V20.625C19.3758 19.9356 18.8152 19.375 18.1258 19.375H16.8758V11.4581L17.8758 10.125C19.6496 7.76063 20.6258 4.83063 20.6258 1.875C20.6258 1.18562 20.0652 0.625 19.3758 0.625H10.6258C9.93644 0.625 9.37582 1.18562 9.37582 1.875C9.37582 4.83063 10.3527 7.76063 12.1258 10.125L13.1258 11.4581V19.375H10.7433L5.41832 7.1275C5.02144 6.21438 4.12144 5.62437 3.12582 5.62437C2.77894 5.62437 2.44332 5.69438 2.12894 5.8325C1.51769 6.09812 1.04582 6.5875 0.80082 7.20937C0.55582 7.83125 0.56707 8.51062 0.83332 9.1225L5.29144 19.375H4.37582C3.68644 19.375 3.12582 19.9356 3.12582 20.625V21.875C3.12582 22.5644 3.68644 23.125 4.37582 23.125V28.75C4.37582 28.97 4.42082 29.1787 4.49082 29.375H1.87582C1.18644 29.375 0.62582 29.9356 0.62582 30.625V33.125C0.62582 33.8144 1.18644 34.375 1.87582 34.375H3.12582V35C3.12582 36.0337 3.96707 36.875 5.00082 36.875C6.03457 36.875 6.87582 36.0337 6.87582 35V34.375H29.4389C29.7296 35.7994 30.9914 36.875 32.5008 36.875C34.0102 36.875 35.2721 35.7994 35.5627 34.375H39.3758V33.75C39.3758 29.9594 36.2914 26.875 32.5008 26.875C30.3702 26.875 28.4633 27.8494 27.2014 29.375H24.3758V24.375H28.2408ZM32.9502 14.375L32.1314 17.6513C32.0614 17.93 31.8121 18.125 31.5246 18.125H24.3758V14.375H32.9502ZM24.3758 19.375H28.1258V20.625H24.3758V19.375ZM24.3758 21.875H28.1258V23.125H24.3758V21.875ZM36.8758 23.75C36.8758 24.0944 36.5952 24.375 36.2508 24.375H30.0008C29.6564 24.375 29.3758 24.0944 29.3758 23.75V19.375H31.5246C32.3864 19.375 33.1346 18.7906 33.3439 17.955L34.2389 14.375H36.8758V23.75ZM32.5158 8.19062L32.6483 8.125H34.8533L34.9852 8.19062C35.9608 8.67875 36.6202 9.58062 36.8121 10.625H30.6896C30.8814 9.58062 31.5408 8.67875 32.5158 8.19062ZM25.0158 8.19062L25.1483 8.125H27.3533L27.4852 8.19062C28.4608 8.67875 29.1202 9.58062 29.3121 10.625H23.1896C23.3814 9.58062 24.0408 8.67875 25.0158 8.19062ZM20.6258 11.875H38.1258L38.1264 13.125H20.6258V11.875ZM15.9383 10.625H14.0633L13.1258 9.375H16.8758L15.9383 10.625ZM15.6258 8.125V1.875H16.8633C16.8046 4.00063 16.4464 6.09875 15.7952 8.125H15.6258ZM14.3758 8.125H14.2064C13.5552 6.09875 13.1971 4.00063 13.1383 1.875H14.3758V8.125ZM17.6877 8.125H17.1039C17.7189 6.09375 18.0577 3.9975 18.1133 1.875H19.3758C19.3758 4.06375 18.7777 6.2325 17.6877 8.125ZM11.8883 1.875C11.9439 3.9975 12.2821 6.09375 12.8977 8.125H12.3139C11.2239 6.2325 10.6258 4.06375 10.6258 1.875H11.8883ZM14.3758 11.875H15.6258V19.375H14.3758V11.875ZM1.96394 7.66687C2.08644 7.35563 2.32207 7.11125 2.62832 6.9775C3.23582 6.71062 4.00457 7.01062 4.27207 7.62563L5.10269 9.53563L2.78082 10.4644L1.98019 8.6225C1.84707 8.3175 1.84082 7.97813 1.96394 7.66687ZM3.27894 11.6119L5.60082 10.6831L9.38019 19.375H6.65457L3.27894 11.6119ZM4.37582 20.625H18.1258L18.1264 21.875H4.37582V20.625ZM5.62582 28.75V23.125H16.8758V28.75C16.8758 29.0944 16.5952 29.375 16.2508 29.375H15.6258V24.375H14.3758V29.375H11.8758V24.375H10.6258V29.375H8.12582V24.375H6.87582V29.375H6.25082C5.90644 29.375 5.62582 29.0944 5.62582 28.75ZM5.62582 35C5.62582 35.3444 5.34519 35.625 5.00082 35.625C4.65644 35.625 4.37582 35.3444 4.37582 35V34.375H5.62582V35ZM32.5008 35.625C31.6871 35.625 30.9996 35.1006 30.7408 34.375H34.2602C34.0021 35.1006 33.3146 35.625 32.5008 35.625ZM32.5008 28.125C35.3914 28.125 37.7796 30.3162 38.0914 33.125H26.9102C27.2221 30.3162 29.6102 28.125 32.5008 28.125ZM25.6539 33.125H1.87582V30.625H26.3783C25.9871 31.3875 25.7346 32.2319 25.6539 33.125ZM21.8758 29.375V14.375H23.1258V29.375H21.8758Z" fill="#262626"/>
</svg>
