<svg width="40" height="40" viewBox="0 0 40 40" fill="none" xmlns="http://www.w3.org/2000/svg">
<path d="M11.6129 0C5.20968 0 0 5.20968 0 11.6129V28.3871C0 34.7903 5.20968 40 11.6129 40C18.0161 40 23.2258 34.7903 23.2258 28.3871V11.6129C23.2258 5.20968 18.0161 0 11.6129 0ZM18.7 13.8271C18.5606 15.8123 16.6445 17.4194 14.6548 17.4194H14.4161C14.4006 17.4194 14.3858 17.4265 14.3768 17.4394C13.8148 18.1968 12.7935 18.7097 11.6129 18.7097C10.4323 18.7097 9.41097 18.1968 8.84903 17.4394C8.84 17.4265 8.82516 17.4194 8.80968 17.4194H8.57097C6.58129 17.4194 4.66516 15.8123 4.52581 13.8271C4.48903 13.3019 4.55742 12.7968 4.71161 12.331C4.98258 11.5135 5.16903 10.671 5.16258 9.81032L5.16129 9.67742C5.16129 5.59871 8.94645 2.40387 13.1961 3.41419C16.1065 4.10645 18.0877 6.81935 18.0639 9.81032C18.0568 10.6716 18.2439 11.5135 18.5148 12.331C18.6684 12.7968 18.7368 13.3019 18.7 13.8271Z" fill="#38D0C3"/>
<path d="M34.8383 19.3548H29.677V18.7097C29.677 16.6394 29.3448 14.5929 28.6906 12.6277L28.5854 12.3129C28.4538 11.9181 28.3867 11.5058 28.3867 11.089V10.9677C28.3867 8.8329 30.1228 7.09677 32.2577 7.09677C34.3925 7.09677 36.1287 8.8329 36.1287 10.9677V11.089C36.1287 11.5058 36.0616 11.9174 35.9293 12.3129L35.8254 12.6264C35.1706 14.5929 34.8383 16.6394 34.8383 18.7097V19.3548Z" fill="#38D0C3"/>
<path d="M8.5284 18.0645C9.25743 18.8774 10.3871 19.3548 11.6136 19.3548C12.8413 19.3548 13.9716 18.8768 14.6994 18.0645C17.0639 18.0406 19.1858 16.131 19.3445 13.8729C19.3865 13.2761 19.3136 12.6897 19.1278 12.1284C18.8407 11.2626 18.7039 10.5064 18.7097 9.81548C18.7361 6.48774 16.4807 3.53161 13.3465 2.78645C11.1684 2.2671 8.93485 2.74903 7.21743 4.10581C5.5013 5.46193 4.51678 7.49226 4.51678 9.68193L4.51743 9.81548C4.52324 10.5064 4.38646 11.2626 4.09936 12.1284C3.91356 12.6897 3.84066 13.2761 3.88259 13.8729C4.0413 16.131 6.16324 18.0413 8.5284 18.0645ZM5.32453 12.5342C5.65678 11.5323 5.81485 10.64 5.8084 9.8058L5.80711 9.67742C5.80711 7.88968 6.61291 6.22774 8.01743 5.11871C8.78453 4.51226 9.67937 4.12129 10.6252 3.95935L10.2032 5.01419C9.85485 5.88581 9.67807 6.80387 9.67807 7.74193C9.67807 8.80903 10.5465 9.67742 11.6136 9.67742C12.6807 9.67742 13.549 8.80903 13.549 7.74193H12.2587C12.2587 8.09806 11.969 8.38709 11.6136 8.38709C11.2581 8.38709 10.9684 8.09806 10.9684 7.74193C10.9684 6.96839 11.1142 6.21161 11.4013 5.4929L12.0394 3.89806C12.3748 3.92129 12.7116 3.96193 13.0471 4.04193C15.6019 4.64903 17.4407 7.0729 17.4187 9.8058C17.4123 10.6406 17.5703 11.5329 17.9026 12.5342C18.0348 12.9348 18.0871 13.3542 18.0568 13.7826C17.9452 15.3761 16.3555 16.7742 14.6555 16.7742L14.0529 16.7942L13.8594 17.0542C13.3968 17.6774 12.5361 18.0645 11.6136 18.0645C10.691 18.0645 9.83033 17.6774 9.36582 17.0529L9.13291 16.7742H8.57162C6.87162 16.7742 5.28195 15.3761 5.17033 13.7819C5.14001 13.3542 5.19227 12.9342 5.32453 12.5342Z" fill="#262626"/>
<path d="M16.8711 29.2865C17.5724 30.4303 18.1311 31.6613 18.5317 32.9426L19.7634 32.5581C19.3311 31.1742 18.7285 29.8471 17.9711 28.6123L16.8711 29.2865Z" fill="#262626"/>
<path d="M15.5788 27.4716L16.5769 26.6535C14.7382 24.4097 12.3498 22.6406 9.6685 21.5368C7.39301 20.6 5.32592 19.1323 3.69108 17.2935L2.72656 18.1503C4.49043 20.1355 6.7214 21.7187 9.17753 22.7303C11.662 23.7529 13.8756 25.3923 15.5788 27.4716Z" fill="#262626"/>
<path d="M11.6133 31.6129V32.9032C14.2913 32.9032 16.6513 34.5148 17.6249 37.0084L18.8268 36.5394C17.6584 33.5464 14.8268 31.6129 11.6133 31.6129Z" fill="#262626"/>
<path d="M17.5391 20.3748C19.5707 23.2194 20.6449 26.571 20.6449 30.0665V33.5484H21.9352V30.0665C21.9352 26.3 20.7784 22.6897 18.5894 19.6252L17.5391 20.3748Z" fill="#262626"/>
<path d="M39.9995 18.0645H24.5156V19.3548H27.9872C25.8976 20.7426 24.5156 23.1148 24.5156 25.8064C24.5156 30.0755 27.9885 33.5484 32.2576 33.5484C36.5266 33.5484 39.9995 30.0755 39.9995 25.8064C39.9995 23.1148 38.6176 20.7426 36.5279 19.3548H39.9995V18.0645ZM38.7092 25.8064C38.7092 29.3639 35.815 32.2581 32.2576 32.2581C28.7001 32.2581 25.8059 29.3639 25.8059 25.8064C25.8059 22.249 28.7001 19.3548 32.2576 19.3548C35.815 19.3548 38.7092 22.249 38.7092 25.8064Z" fill="#262626"/>
<path d="M32.2589 30.9677C35.1048 30.9677 37.4202 28.6523 37.4202 25.8065C37.4202 23.5406 35.9041 21.5077 33.7331 20.8619L33.3654 22.0981C34.9931 22.5826 36.1299 24.1077 36.1299 25.8065C36.1299 27.9413 34.3938 29.6774 32.2589 29.6774C30.1241 29.6774 28.388 27.9413 28.388 25.8065C28.388 24.1077 29.5248 22.5826 31.1525 22.0981L30.7848 20.8619C28.6138 21.5077 27.0977 23.5406 27.0977 25.8065C27.0977 28.6523 29.4131 30.9677 32.2589 30.9677Z" fill="#262626"/>
<path d="M34.8371 15.4839H29.6758V16.7742H34.8371V15.4839Z" fill="#262626"/>
</svg>
