<svg width="40" height="40" viewBox="0 0 40 40" fill="none" xmlns="http://www.w3.org/2000/svg">
<path d="M37.0062 32.8044L36.7062 32.6544C36.0394 32.3206 35.625 31.6506 35.625 30.905C35.625 30.4631 35.7769 30.0294 36.0538 29.6838L36.8119 28.7362C37.6587 27.6775 38.125 26.3469 38.125 24.9906C38.125 23.2238 37.3512 21.5556 36.0019 20.4137L32.6556 17.5819C30.9681 16.1544 30 14.0675 30 11.8569V8.125C30 3.98937 26.6356 0.625 22.5 0.625C22.045 0.625 21.5913 0.665625 21.15 0.74625L18.7656 1.62938L18.6656 1.6775C16.4044 3.02562 15 5.49563 15 8.125V11.8569C15 14.0675 14.0319 16.1544 12.3444 17.5819L11.4756 18.3512L12.1337 19.0094C12.3681 19.2431 12.6862 19.375 13.0175 19.375H20L20.4744 17.0037H20.4806C19.0819 16.2737 18.125 14.8125 18.125 13.125V10.5338C18.125 9.575 18.5694 8.72062 19.2638 8.16437L19.2688 8.16375C19.1094 7.99625 18.9794 7.80063 18.8906 7.58313C18.8819 7.56125 18.8775 7.5375 18.8694 7.515C18.8369 7.42688 18.8056 7.3375 18.7869 7.24375C18.7631 7.12437 18.75 7.00125 18.75 6.875C17.7144 6.875 16.875 6.03562 16.875 5C16.875 3.96438 17.7144 3.125 18.75 3.125C18.75 2.08938 19.5894 1.25 20.625 1.25C21.6606 1.25 22.5 2.08938 22.5 3.125C23.5356 3.125 24.375 3.96438 24.375 5C24.375 6.03562 23.5356 6.875 22.5 6.875C22.5 7.025 22.4775 7.16937 22.4444 7.30937C22.4412 7.32062 22.4375 7.33063 22.4344 7.34188C22.4 7.47625 22.35 7.6025 22.2881 7.72375L22.2981 7.7225C22.3719 7.7525 22.4444 7.785 22.5156 7.82062L23.2413 8.18313C23.995 8.56 24.7875 8.85312 25.6056 9.0575L25.9287 9.13813C26.485 9.2775 26.8756 9.7775 26.8756 10.3506V13.125C26.8756 14.8125 25.9187 16.2737 24.52 17.0037H24.5263L25 19.375L27.7331 19.9219C29.7781 20.3306 31.25 22.1262 31.25 24.2119V30.625C31.25 31.83 30.56 32.8638 29.5613 33.385L29.5712 33.3956C30.6625 34.965 31.25 36.8331 31.25 38.75H15.625L15.5925 38.685C14.7919 37.0838 14.375 35.3181 14.375 33.5275C14.375 30.4688 15.59 27.535 17.7531 25.3719L17.9731 25.1519C17.5775 24.7563 17.2731 24.27 17.0856 23.73L17.0763 23.715L11.3688 23.2394C10.485 23.1656 9.65562 22.7812 9.02875 22.1537L8.16375 21.2887L8.10812 21.3494C7.3125 22.3888 6.875 23.6825 6.875 24.9906C6.875 26.3469 7.34125 27.6775 8.18875 28.7362L8.94687 29.6831C9.22312 30.0294 9.375 30.4631 9.375 30.905C9.375 31.65 8.96062 32.3206 8.29437 32.6544L7.99312 32.8044C6.5325 33.535 5.625 35.0037 5.625 36.6362C5.625 37.2975 5.78125 37.9594 6.0775 38.5519L6.48875 39.375H38.5112L38.9225 38.5525C39.2188 37.9594 39.375 37.2975 39.375 36.6362C39.375 35.0037 38.4675 33.535 37.0062 32.8044Z" fill="#38D0C3"/>
<path d="M31.875 30.625V24.2113C31.875 21.8363 30.185 19.7744 27.8556 19.3088L25.5306 18.8438L25.2244 17.3119C26.5925 16.4187 27.5 14.8769 27.5 13.125V10.3512C27.5 9.48938 26.9156 8.74125 26.0794 8.53188L25.7569 8.45187C24.9856 8.25875 24.2331 7.98 23.5206 7.62438L23.1125 7.42063C24.195 7.14563 25 6.16625 25 5C25 3.815 24.1706 2.81938 23.0612 2.56375C22.8056 1.45438 21.81 0.625 20.625 0.625C19.44 0.625 18.4444 1.45438 18.1887 2.56375C17.0794 2.81938 16.25 3.815 16.25 5C16.25 6.185 17.0794 7.18062 18.1887 7.43625C18.2419 7.6675 18.3344 7.88312 18.4469 8.085C17.8425 8.75313 17.5 9.61625 17.5 10.5338V13.125C17.5 14.8769 18.4075 16.4187 19.7756 17.3119L19.4881 18.75H13.0175C12.8531 18.75 12.6919 18.6838 12.5756 18.5669L5.46375 11.455C4.92875 10.92 4.21687 10.625 3.45937 10.625C1.89625 10.625 0.625 11.8962 0.625 13.4594C0.625 14.2169 0.92 14.9288 1.455 15.4638L8.58687 22.5956C9.3175 23.3263 10.2869 23.7756 11.3169 23.8613L16.6444 24.305C16.7775 24.5975 16.9425 24.8713 17.1337 25.125C14.955 27.3994 13.75 30.3681 13.75 33.5275C13.75 35.4056 14.1938 37.2856 15.0338 38.965L15.2388 39.375H31.875V38.75C31.875 36.9125 31.3744 35.1387 30.4294 33.5775C31.3075 32.8906 31.875 31.8237 31.875 30.625ZM22.5 3.75C23.1894 3.75 23.75 4.31063 23.75 5C23.75 5.68937 23.1894 6.25 22.5 6.25H22.0125C22.3119 5.9175 22.5 5.48187 22.5 5C22.5 4.51813 22.3119 4.0825 22.0125 3.75H22.5ZM19.375 6.875V6.3875C19.7075 6.6875 20.1431 6.875 20.625 6.875C21.1069 6.875 21.5425 6.68688 21.875 6.3875V6.875C21.875 7.56437 21.3144 8.125 20.625 8.125C19.9356 8.125 19.375 7.56437 19.375 6.875ZM20 5C20 4.655 20.28 4.375 20.625 4.375C20.97 4.375 21.25 4.655 21.25 5C21.25 5.345 20.97 5.625 20.625 5.625C20.28 5.625 20 5.345 20 5ZM20.625 1.875C21.3144 1.875 21.875 2.43562 21.875 3.125V3.6125C21.5425 3.31313 21.1069 3.125 20.625 3.125C20.1431 3.125 19.7075 3.31313 19.375 3.6125V3.125C19.375 2.43562 19.9356 1.875 20.625 1.875ZM17.5 5C17.5 4.31063 18.0606 3.75 18.75 3.75H19.2375C18.9381 4.0825 18.75 4.51813 18.75 5C18.75 5.48187 18.9381 5.9175 19.2375 6.25H18.75C18.0606 6.25 17.5 5.68937 17.5 5ZM18.75 13.125V10.5338C18.75 9.96187 18.9537 9.42375 19.3131 8.99438C19.6956 9.2325 20.1425 9.375 20.625 9.375C21.3756 9.375 22.0487 9.04062 22.5075 8.515L22.9613 8.74188C23.7556 9.13875 24.5938 9.44875 25.4538 9.66438L25.7763 9.74438C26.055 9.81437 26.25 10.0638 26.25 10.3512V13.125C26.25 15.1931 24.5681 16.875 22.5 16.875C20.4319 16.875 18.75 15.1931 18.75 13.125ZM22.5 18.125C23.0456 18.125 23.57 18.0337 24.0619 17.8719L24.3525 19.3263C24.0681 20.1038 23.3331 20.625 22.5 20.625C21.6669 20.625 20.9319 20.1044 20.6469 19.325L20.9375 17.8719C21.43 18.0337 21.9544 18.125 22.5 18.125ZM11.4206 22.6169C10.685 22.555 9.9925 22.2344 9.47062 21.7125L2.33875 14.58C2.04 14.2812 1.875 13.8831 1.875 13.4594C1.875 12.5863 2.58625 11.875 3.45937 11.875C3.88312 11.875 4.28063 12.04 4.58 12.3388L11.6919 19.4506C12.0456 19.805 12.5169 20 13.0175 20H16.25V22.5C16.25 22.6769 16.2638 22.8506 16.2844 23.0219L11.4206 22.6169ZM30.6031 38.125H16.0162C15.3506 36.6906 15 35.1081 15 33.5275C15 30.7013 16.0756 28.0444 18.02 26.0069C18.7488 26.5494 19.6488 26.875 20.625 26.875V25.625C18.9019 25.625 17.5 24.2231 17.5 22.5V20H19.58C20.1025 21.1319 21.2306 21.875 22.5 21.875C23.7375 21.875 24.8438 21.1719 25.3831 20.0887L27.6106 20.5344C27.645 20.5413 27.6763 20.5556 27.7106 20.5638C27.165 21.67 26.875 22.8869 26.875 24.1281V29.375H20.625C19.2463 29.375 18.125 30.4963 18.125 31.875C18.125 33.2537 19.2463 34.375 20.625 34.375H28.125C28.5469 34.375 28.9506 34.3019 29.3294 34.1731C30.0681 35.3737 30.5037 36.7206 30.6031 38.125ZM30.625 30.625C30.625 32.0037 29.5037 33.125 28.125 33.125H20.625C19.9356 33.125 19.375 32.5644 19.375 31.875C19.375 31.1856 19.9356 30.625 20.625 30.625H27.2412L28.3081 31.6919L29.1919 30.8081L28.125 29.7412V24.1287C28.125 23.0525 28.3931 22.0031 28.8775 21.0494C29.9356 21.7219 30.625 22.9012 30.625 24.2113V30.625Z" fill="#262626"/>
<path d="M20.625 11.875C20.9702 11.875 21.25 11.5952 21.25 11.25C21.25 10.9048 20.9702 10.625 20.625 10.625C20.2798 10.625 20 10.9048 20 11.25C20 11.5952 20.2798 11.875 20.625 11.875Z" fill="#262626"/>
<path d="M24.375 11.875C24.7202 11.875 25 11.5952 25 11.25C25 10.9048 24.7202 10.625 24.375 10.625C24.0298 10.625 23.75 10.9048 23.75 11.25C23.75 11.5952 24.0298 11.875 24.375 11.875Z" fill="#262626"/>
<path d="M21.1845 13.4706L20.0664 14.03L20.132 14.1619C20.5833 15.0644 21.4908 15.625 22.5002 15.625C23.5095 15.625 24.417 15.0644 24.8683 14.1613L24.9339 14.0294L23.8158 13.47L23.7502 13.6025C23.512 14.0788 23.0333 14.375 22.5002 14.375C21.967 14.375 21.4883 14.0788 21.2502 13.6025L21.1845 13.4706Z" fill="#262626"/>
<path d="M21.875 25.625H24.375V26.875H21.875V25.625Z" fill="#262626"/>
</svg>
