<svg width="40" height="40" viewBox="0 0 40 40" fill="none" xmlns="http://www.w3.org/2000/svg">
<path d="M36.7753 10.9678C37.8443 10.9678 38.7108 10.1012 38.7108 9.03229C38.7108 7.96335 37.8443 7.0968 36.7753 7.0968C35.7064 7.0968 34.8398 7.96335 34.8398 9.03229C34.8398 10.1012 35.7064 10.9678 36.7753 10.9678Z" fill="#38D0C3"/>
<path d="M30.9667 3.87097C32.0357 3.87097 32.9022 3.00442 32.9022 1.93548C32.9022 0.866546 32.0357 0 30.9667 0C29.8978 0 29.0312 0.866546 29.0312 1.93548C29.0312 3.00442 29.8978 3.87097 30.9667 3.87097Z" fill="#38D0C3"/>
<path d="M9.67767 7.74194C10.7466 7.74194 11.6132 6.87539 11.6132 5.80646C11.6132 4.73752 10.7466 3.87097 9.67767 3.87097C8.60873 3.87097 7.74219 4.73752 7.74219 5.80646C7.74219 6.87539 8.60873 7.74194 9.67767 7.74194Z" fill="#38D0C3"/>
<path d="M4.51752 3.87097C5.58645 3.87097 6.453 3.00442 6.453 1.93548C6.453 0.866546 5.58645 0 4.51752 0C3.44858 0 2.58203 0.866546 2.58203 1.93548C2.58203 3.00442 3.44858 3.87097 4.51752 3.87097Z" fill="#38D0C3"/>
<path d="M3.22455 13.5483C4.29348 13.5483 5.16003 12.6818 5.16003 11.6129C5.16003 10.5439 4.29348 9.67737 3.22455 9.67737C2.15561 9.67737 1.28906 10.5439 1.28906 11.6129C1.28906 12.6818 2.15561 13.5483 3.22455 13.5483Z" fill="#38D0C3"/>
<path d="M16.1281 19.3548C14.3494 19.3548 12.9023 17.9077 12.9023 16.129C12.9023 14.3503 14.3494 12.9032 16.1281 12.9032C17.9069 12.9032 19.354 14.3503 19.354 16.129C19.354 17.9077 17.9069 19.3548 16.1281 19.3548Z" fill="#38D0C3"/>
<path d="M20.6455 39.3549H11.6133V25.8065H20.6455V39.3549Z" fill="#38D0C3"/>
<path d="M15.483 12.9032V15.4838H12.9023V16.7742H15.483V19.3548H16.7733V16.7742H19.354V15.4838H16.7733V12.9032H15.483Z" fill="#262626"/>
<path d="M39.2316 33.6606C39.3064 33.4167 39.3548 33.1638 39.3548 32.9032C39.3548 32.2509 39.1103 31.6555 38.7097 31.2006V20.5277C38.9781 20.4329 39.2258 20.2851 39.4329 20.078C39.7987 19.7129 40 19.2264 40 18.7096C40 18.1929 39.7987 17.7064 39.4329 17.3413L25.2394 3.14771C24.5084 2.4161 23.2335 2.4161 22.5026 3.14771L18.7097 6.94061L17.4974 5.72835C16.7665 4.99674 15.4916 4.99674 14.7606 5.72835L0.567097 19.9219C0.20129 20.2871 0 20.7735 0 21.2903C0 21.8071 0.20129 22.2935 0.567097 22.6587C1.29806 23.3903 2.5729 23.3903 3.30387 22.6587L3.87097 22.0916V33.5484C3.15935 33.5484 2.58065 34.1271 2.58065 34.8387V38.7096H0V40H40V34.8387C40 34.3129 39.6832 33.8619 39.2316 33.6606ZM38.7097 36.129H36.129V34.8387H38.7097V36.129ZM5.16129 21.9355H7.74194V23.2258H5.16129V21.9355ZM31.691 19.9219L31.1239 19.3548H35.9729L36.6961 20.078C36.9032 20.2851 37.1516 20.4329 37.4194 20.5277V30.4129C37.3077 30.3838 37.1955 30.3542 37.0787 30.34C36.8523 29.9361 36.5219 29.6071 36.129 29.3793V24.5161H29.6774V29.6774C29.2052 29.6774 28.7684 29.8142 28.3871 30.0361V22.0916L28.9542 22.6587C29.3194 23.0245 29.8058 23.2258 30.3226 23.2258C30.8394 23.2258 31.3258 23.0245 31.691 22.6587C32.0568 22.2935 32.2581 21.8071 32.2581 21.2903C32.2581 20.7735 32.0568 20.2871 31.691 19.9219ZM21.4465 9.67739L23.871 7.25287L34.6826 18.0645H29.8335L21.4465 9.67739ZM37.8903 33.5484H35.4839C35.4839 32.3903 34.7116 31.4193 33.6594 31.0935C33.8594 30.6406 34.3123 30.3225 34.8387 30.3225C35.3858 30.3225 35.8716 30.6684 36.0477 31.1826L36.2368 31.7006L36.7742 31.6129C37.4858 31.6129 38.0645 32.1916 38.0645 32.9032C38.0645 33.1322 38.0026 33.3535 37.8903 33.5484ZM32.2581 36.129V34.8387H34.8387V36.129H32.2581ZM27.0968 21.9355V23.2258H24.5161V21.9355H27.0968ZM33.5484 29.3909V28.3871H34.8387V29.0322C34.3665 29.0322 33.9297 29.169 33.5484 29.3909ZM31.6129 33.5484C31.6129 32.8367 32.1916 32.258 32.9032 32.258C33.6148 32.258 34.1935 32.8367 34.1935 33.5484H31.6129ZM34.8387 27.0967H33.5484V25.8064H34.8387V27.0967ZM32.2581 27.0967H30.9677V25.8064H32.2581V27.0967ZM30.9677 28.3871H32.2581V31.0593C32.1703 31.0819 32.0839 31.1077 32.0006 31.1393C31.7748 30.6742 31.411 30.2929 30.9677 30.0342V28.3871ZM30.9219 31.9155C30.5529 32.3619 30.3226 32.9258 30.3226 33.5484H28.3871V32.258C28.3871 31.5464 28.9658 30.9677 29.6774 30.9677C30.2645 30.9677 30.7703 31.3677 30.9219 31.9155ZM5.31742 20.6451L16.129 9.83352L26.9406 20.6451H5.31742ZM9.03226 21.9355H23.2258V23.2258H9.03226V21.9355ZM27.0968 24.5161V33.5484H25.8064V24.5161H27.0968ZM30.9677 34.8387V36.129H29.6774V34.8387H30.9677ZM29.6774 37.4193H32.2581V38.7096H29.6774V37.4193ZM33.5484 37.4193H36.129V38.7096H33.5484V37.4193ZM23.4148 4.05997C23.6626 3.81287 24.0794 3.81287 24.3271 4.05997L38.5206 18.2535C38.6439 18.3774 38.7097 18.5348 38.7097 18.7096C38.7097 18.8845 38.6439 19.0419 38.5206 19.1658C38.2729 19.4129 37.8561 19.4129 37.6084 19.1658L23.871 5.42835L20.5342 8.76513L19.6219 7.85287L23.4148 4.05997ZM2.39161 21.7464C2.14387 21.9935 1.7271 21.9935 1.47935 21.7464C1.35613 21.6225 1.29032 21.4651 1.29032 21.2903C1.29032 21.1155 1.35613 20.958 1.47935 20.8342L15.6729 6.64061C15.9206 6.39352 16.3374 6.39352 16.5852 6.64061L30.7787 20.8342C30.9019 20.958 30.9677 21.1155 30.9677 21.2903C30.9677 21.4651 30.9019 21.6225 30.7787 21.7464C30.531 21.9935 30.1142 21.9935 29.8664 21.7464L16.129 8.009L2.39161 21.7464ZM5.16129 24.5161H6.45161V33.5484H5.16129V24.5161ZM3.87097 34.8387H7.74194V38.7096H3.87097V34.8387ZM23.2258 34.8387V38.7096H9.03226V34.8387C9.03226 34.1271 8.45355 33.5484 7.74194 33.5484V24.5161H24.5161V33.5484C23.8045 33.5484 23.2258 34.1271 23.2258 34.8387ZM24.5161 34.8387H28.3871V38.7096H24.5161V34.8387ZM37.4194 38.7096V37.4193H38.7097V38.7096H37.4194Z" fill="#262626"/>
<path d="M14.1953 28.3871H18.0663V29.6774H14.1953V28.3871Z" fill="#262626"/>
<path d="M14.1953 33.5483H15.4856V34.8387H14.1953V33.5483Z" fill="#262626"/>
<path d="M21.9336 28.3871H23.2239V29.6774H21.9336V28.3871Z" fill="#262626"/>
<path d="M30.3242 0H31.6145V1.29032H30.3242V0Z" fill="#262626"/>
<path d="M30.3242 2.58069H31.6145V3.87101H30.3242V2.58069Z" fill="#262626"/>
<path d="M31.6133 1.29028H32.9036V2.58061H31.6133V1.29028Z" fill="#262626"/>
<path d="M29.0312 1.29028H30.3216V2.58061H29.0312V1.29028Z" fill="#262626"/>
<path d="M36.1289 7.0968H37.4192V8.38712H36.1289V7.0968Z" fill="#262626"/>
<path d="M36.1289 9.67737H37.4192V10.9677H36.1289V9.67737Z" fill="#262626"/>
<path d="M37.418 8.38708H38.7083V9.67741H37.418V8.38708Z" fill="#262626"/>
<path d="M34.8398 8.38708H36.1302V9.67741H34.8398V8.38708Z" fill="#262626"/>
<path d="M9.03125 3.87097H10.3216V5.16129H9.03125V3.87097Z" fill="#262626"/>
<path d="M9.03125 6.45166H10.3216V7.74198H9.03125V6.45166Z" fill="#262626"/>
<path d="M10.3242 5.16125H11.6145V6.45158H10.3242V5.16125Z" fill="#262626"/>
<path d="M7.74219 5.16125H9.03251V6.45158H7.74219V5.16125Z" fill="#262626"/>
<path d="M3.87109 0H5.16142V1.29032H3.87109V0Z" fill="#262626"/>
<path d="M3.87109 2.58069H5.16142V3.87101H3.87109V2.58069Z" fill="#262626"/>
<path d="M5.16016 1.29028H6.45048V2.58061H5.16016V1.29028Z" fill="#262626"/>
<path d="M2.58203 1.29028H3.87235V2.58061H2.58203V1.29028Z" fill="#262626"/>
<path d="M2.58203 9.67737H3.87235V10.9677H2.58203V9.67737Z" fill="#262626"/>
<path d="M2.58203 12.2581H3.87235V13.5484H2.58203V12.2581Z" fill="#262626"/>
<path d="M3.87109 10.9678H5.16142V12.2581H3.87109V10.9678Z" fill="#262626"/>
<path d="M1.28906 10.9678H2.57939V12.2581H1.28906V10.9678Z" fill="#262626"/>
</svg>
