<svg width="40" height="40" viewBox="0 0 40 40" fill="none" xmlns="http://www.w3.org/2000/svg">
<path d="M25.71 38.75H30.5406C32.0794 37.8969 33.125 36.2562 33.125 34.375C33.125 31.6181 30.8819 29.375 28.125 29.375C25.3681 29.375 23.125 31.6181 23.125 34.375C23.125 36.2562 24.1706 37.8969 25.71 38.75ZM28.125 32.5C29.1588 32.5 30 33.3412 30 34.375C30 35.4088 29.1588 36.25 28.125 36.25C27.0912 36.25 26.25 35.4088 26.25 34.375C26.25 33.3412 27.0912 32.5 28.125 32.5Z" fill="#38D0C3"/>
<path d="M20.625 31.875H18.125C17.4356 31.875 16.875 31.3144 16.875 30.625V29.375C16.875 28.6856 17.4356 28.125 18.125 28.125H20.625C21.3144 28.125 21.875 28.6856 21.875 29.375V30.625C21.875 31.3144 21.3144 31.875 20.625 31.875Z" fill="#38D0C3"/>
<path d="M25.71 38.75H30.5406C32.0794 37.8969 33.125 36.2562 33.125 34.375C33.125 31.6181 30.8819 29.375 28.125 29.375C25.3681 29.375 23.125 31.6181 23.125 34.375C23.125 36.2562 24.1706 37.8969 25.71 38.75ZM28.125 32.5C29.1588 32.5 30 33.3412 30 34.375C30 35.4088 29.1588 36.25 28.125 36.25C27.0912 36.25 26.25 35.4088 26.25 34.375C26.25 33.3412 27.0912 32.5 28.125 32.5Z" fill="#38D0C3"/>
<path d="M5.25813 38.75H9.74187C11.0169 37.9844 11.875 36.5925 11.875 35C11.875 32.5881 9.9125 30.625 7.5 30.625C5.0875 30.625 3.125 32.5881 3.125 35C3.125 36.5925 3.98313 37.9844 5.25813 38.75ZM7.5 33.75C8.18937 33.75 8.75 34.3106 8.75 35C8.75 35.6894 8.18937 36.25 7.5 36.25C6.81063 36.25 6.25 35.6894 6.25 35C6.25 34.3106 6.81063 33.75 7.5 33.75Z" fill="#38D0C3"/>
<path d="M23.8027 36.875C23.5777 36.4881 23.4052 36.0687 23.2902 35.625H11.8283C11.7645 36.0675 11.6283 36.4856 11.4414 36.875H23.8027Z" fill="#262626"/>
<path d="M23.2878 33.125H11.4453C11.6309 33.5137 11.7597 33.9338 11.8234 34.375H23.1234C23.1234 33.9425 23.1841 33.5256 23.2878 33.125Z" fill="#262626"/>
<path d="M32.5 14.375C33.5338 14.375 34.375 13.5338 34.375 12.5C34.375 11.4662 33.5338 10.625 32.5 10.625C31.4662 10.625 30.625 11.4662 30.625 12.5C30.625 13.5338 31.4662 14.375 32.5 14.375ZM32.5 11.875C32.8444 11.875 33.125 12.1556 33.125 12.5C33.125 12.8444 32.8444 13.125 32.5 13.125C32.1556 13.125 31.875 12.8444 31.875 12.5C31.875 12.1556 32.1556 11.875 32.5 11.875Z" fill="#262626"/>
<path d="M11.25 24.375H13.75V25.625H11.25V24.375Z" fill="#262626"/>
<path d="M38.125 21.875H35.2588L37.5 19.6337C37.9031 19.2306 38.125 18.695 38.125 18.125C38.125 17.555 37.9031 17.0188 37.5 16.6163L36.6869 15.8031C36.8044 15.5588 36.875 15.2887 36.875 15V10C36.875 9.57812 36.73 9.19312 36.4944 8.87937L39.0244 4.52188C39.2537 4.1275 39.375 3.67687 39.375 3.2175C39.375 1.78812 38.2119 0.625 36.7825 0.625C35.8419 0.625 34.9731 1.13562 34.5169 1.95812L30.695 8.83687L28.4419 9.20937C28.0594 9.27312 27.7256 9.4525 27.4619 9.7025L24.6338 6.875H17.0263L13.8256 3.67438C13.1175 2.96563 11.8825 2.96563 11.1744 3.67438L1.17437 13.6744C0.82 14.0281 0.625 14.4994 0.625 15C0.625 15.5006 0.82 15.9719 1.17437 16.3256C1.68313 16.835 2.46312 16.9719 3.125 16.7494V29.0763C1.61875 30.0863 0.625 31.8037 0.625 33.75V35.625C0.625 36.3144 1.18562 36.875 1.875 36.875H3.55875C3.37187 36.4856 3.23625 36.0675 3.17188 35.625H1.875V34.375H3.175C3.23875 33.9338 3.3675 33.5137 3.55312 33.125H1.925C2.23 31.0088 4.05062 29.375 6.25 29.375H9.17313C8.795 29.7463 8.51125 30.2019 8.33313 30.7069C8.74938 30.7875 9.14375 30.9281 9.50937 31.1181C9.71375 30.54 10.1413 30.0662 10.7175 29.81L25.4087 23.2812C25.9669 23.0331 26.6325 23.0881 27.1406 23.4281L27.8475 23.8994C28.0206 24.015 28.125 24.2094 28.125 24.4188V29.375C28.5575 29.375 28.9744 29.4356 29.375 29.5394V27.7588L34.5269 32.9113C34.0869 33.2931 33.61 33.6394 33.1031 33.9506C33.1156 34.0906 33.125 34.2319 33.125 34.375C33.125 34.7431 33.0744 35.0987 32.9981 35.4444C36.9338 33.4212 39.375 29.4338 39.375 25V23.125C39.375 22.4356 38.8144 21.875 38.125 21.875ZM36.6162 18.75L33.4912 21.875H28.9487L32.125 16.4044L34.8975 16.8662L35 16.875C35.2887 16.875 35.5588 16.8044 35.8031 16.6869L36.6162 17.5C36.7806 17.6644 36.875 17.8925 36.875 18.125C36.875 18.3575 36.7806 18.5856 36.6162 18.75ZM35.6094 2.565C35.8456 2.13938 36.2956 1.875 36.7825 1.875C37.5231 1.875 38.125 2.47687 38.125 3.22C38.125 3.45625 38.0619 3.68937 37.9431 3.89437L35.4512 8.18625C35.3063 8.15 35.1562 8.125 35 8.125L32.2694 8.57625L35.6094 2.565ZM28.125 11.0588C28.125 10.7519 28.345 10.4925 28.6475 10.4425L35.0431 9.37625C35.3675 9.39875 35.625 9.67 35.625 10V15C35.625 15.33 35.3675 15.6012 35.0431 15.6237L28.6475 14.5575C28.345 14.5069 28.125 14.2475 28.125 13.9412V11.0588ZM23.4519 21.875H21.875V16.7612C22.0737 16.8319 22.2831 16.875 22.5 16.875C23.0006 16.875 23.4719 16.68 23.8256 16.3256C24.0262 16.125 24.1694 15.8844 24.2612 15.625H26.9237L23.4519 21.875ZM24.1162 8.125L26.8894 10.8981C26.885 10.9519 26.875 11.0044 26.875 11.0588V13.9406C26.875 14.0906 26.8981 14.2344 26.9312 14.3744H24.2612C24.1694 14.1144 24.0262 13.8744 23.8256 13.6737L18.2763 8.125H24.1162ZM2.05813 15.4419C1.93875 15.3219 1.875 15.1694 1.875 15C1.875 14.8306 1.93875 14.6781 2.05813 14.5581L12.0581 4.55813C12.2981 4.31875 12.7019 4.31875 12.9419 4.55813L22.9419 14.5581C23.0613 14.6781 23.125 14.8306 23.125 15C23.125 15.1694 23.0613 15.3219 22.9419 15.4419C22.7019 15.6813 22.2981 15.6813 22.0581 15.4419L12.5 5.88375L2.94187 15.4419C2.70187 15.6813 2.29813 15.6813 2.05813 15.4419ZM19.2237 14.375H5.77625L12.5 7.65125L19.2237 14.375ZM4.375 15.7763L4.52625 15.625H20.4737L20.625 15.7763V21.875H19.375V16.875H13.125V21.875H11.9894C11.9513 21.875 11.9137 21.8819 11.875 21.8825V16.875H5.625V24.9675C5.09812 25.6375 4.6725 26.3875 4.375 27.2038V15.7763ZM18.125 19.375H16.875V18.125H18.125V19.375ZM15.625 19.375H14.375V18.125H15.625V19.375ZM14.375 20.625H15.625V21.875H14.375V20.625ZM16.875 20.625H18.125V21.875H16.875V20.625ZM10.625 22.0056C9.6925 22.165 8.78813 22.4731 7.96313 22.9444C7.57625 23.1656 7.215 23.4181 6.875 23.6938V18.125H10.625V22.0056ZM19.8669 24.375H15V25.625H17.0544L11.4287 28.125H6.25C5.94625 28.125 5.65063 28.1556 5.36 28.2025L5.38813 28.1044C5.88313 26.3713 7.01813 24.9237 8.58313 24.0294C9.61812 23.4375 10.7956 23.125 11.9894 23.125H22.68L19.8669 24.375ZM24.9006 22.1381L24.6813 22.2356L28.2844 15.75C28.3369 15.7631 28.3869 15.7819 28.4412 15.7906L30.8069 16.185L27.3525 22.1344C26.5794 21.8019 25.68 21.7919 24.9006 22.1381ZM35.4206 32.0369L29.375 25.9912V25.625H30.9912L36.2956 30.9294C36.03 31.3175 35.7381 31.6869 35.4206 32.0369ZM36.9587 29.825L32.7588 25.625H34.7412L37.5506 28.4344C37.3862 28.9131 37.1894 29.3781 36.9587 29.825ZM37.9238 27.0406L36.5088 25.625H38.1031C38.075 26.105 38.0144 26.5769 37.9238 27.0406ZM38.125 24.375H29.3694C29.3581 23.9019 29.17 23.46 28.8488 23.125H38.125V24.375Z" fill="#262626"/>
<path d="M0.625 38.125H39.375V39.375H0.625V38.125Z" fill="#262626"/>
<path d="M9.375 35C9.375 33.9662 8.53375 33.125 7.5 33.125C6.46625 33.125 5.625 33.9662 5.625 35C5.625 36.0338 6.46625 36.875 7.5 36.875C8.53375 36.875 9.375 36.0338 9.375 35ZM6.875 35C6.875 34.655 7.15562 34.375 7.5 34.375C7.84437 34.375 8.125 34.655 8.125 35C8.125 35.345 7.84437 35.625 7.5 35.625C7.15562 35.625 6.875 35.345 6.875 35Z" fill="#262626"/>
<path d="M30.625 34.375C30.625 32.9962 29.5038 31.875 28.125 31.875C26.7462 31.875 25.625 32.9962 25.625 34.375C25.625 35.7538 26.7462 36.875 28.125 36.875C29.5038 36.875 30.625 35.7538 30.625 34.375ZM26.875 34.375C26.875 33.6856 27.4356 33.125 28.125 33.125C28.8144 33.125 29.375 33.6856 29.375 34.375C29.375 35.0644 28.8144 35.625 28.125 35.625C27.4356 35.625 26.875 35.0644 26.875 34.375Z" fill="#262626"/>
<path d="M10.625 11.25C10.625 12.2838 11.4662 13.125 12.5 13.125C13.5338 13.125 14.375 12.2838 14.375 11.25C14.375 10.2162 13.5338 9.375 12.5 9.375C11.4662 9.375 10.625 10.2162 10.625 11.25ZM13.125 11.25C13.125 11.5944 12.8444 11.875 12.5 11.875C12.1556 11.875 11.875 11.5944 11.875 11.25C11.875 10.9056 12.1556 10.625 12.5 10.625C12.8444 10.625 13.125 10.9056 13.125 11.25Z" fill="#262626"/>
</svg>
