<svg width="40" height="40" viewBox="0 0 40 40" fill="none" xmlns="http://www.w3.org/2000/svg">
<path d="M8.75 39.375C6.3375 39.375 4.375 37.4119 4.375 35C4.375 32.5881 6.3375 30.625 8.75 30.625C11.1625 30.625 13.125 32.5881 13.125 35C13.125 37.4119 11.1625 39.375 8.75 39.375ZM8.75 33.75C8.06063 33.75 7.5 34.3106 7.5 35C7.5 35.6894 8.06063 36.25 8.75 36.25C9.43937 36.25 10 35.6894 10 35C10 34.3106 9.43937 33.75 8.75 33.75Z" fill="#38D0C3"/>
<path d="M25.4181 29.7394L26.7462 29.4075C26.8319 29.3856 26.9194 29.375 27.0075 29.375H27.0494C27.4469 29.375 27.7906 29.5931 27.9763 29.9144L28.1144 29.8819L27.3631 26.875H15.625V30.625H24.4506C24.6 30.1944 24.9575 29.8544 25.4181 29.7394Z" fill="#38D0C3"/>
<path d="M27.0506 25.625H15.625V21.875H26.1131L27.0506 25.625Z" fill="#38D0C3"/>
<path d="M25.8006 20.625H15.625V16.875H24.8631L25.8006 20.625Z" fill="#38D0C3"/>
<path d="M8.75 33.125C7.71625 33.125 6.875 33.9662 6.875 35C6.875 36.0338 7.71625 36.875 8.75 36.875C9.78375 36.875 10.625 36.0338 10.625 35C10.625 33.9662 9.78375 33.125 8.75 33.125ZM8.75 35.625C8.40562 35.625 8.125 35.345 8.125 35C8.125 34.655 8.40562 34.375 8.75 34.375C9.09437 34.375 9.375 34.655 9.375 35C9.375 35.345 9.09437 35.625 8.75 35.625Z" fill="#262626"/>
<path d="M35.8838 20L37.7588 18.125L34.375 14.7413L32.2412 16.875H28.0731L27.6062 15.275C27.4512 14.745 26.9581 14.375 26.4062 14.375H14.375C13.6856 14.375 13.125 14.9356 13.125 15.625V18.125H6.58437C6.16563 18.125 5.77688 18.3331 5.54438 18.6819L0.835 25.7456C0.6975 25.9519 0.625 26.1913 0.625 26.4394V34.375C0.625 35.0644 1.18562 35.625 1.875 35.625H4.425C4.39562 35.42 4.375 35.2125 4.375 35C4.375 34.7875 4.39562 34.58 4.425 34.375H1.875V33.125H4.80312C5.02625 32.6569 5.3275 32.2337 5.69375 31.875H5.625V28.125H6.875C7.56437 28.125 8.125 27.5644 8.125 26.875H10.625V28.125H9.375V29.375H10.625V31.0531C11.0781 31.2694 11.4869 31.5613 11.8375 31.9125C12.1881 32.2638 12.4806 32.6719 12.6962 33.125H23.1938C22.8269 33.4837 22.5263 33.9069 22.3031 34.375H13.075C13.1044 34.58 13.125 34.7875 13.125 35C13.125 35.2125 13.1044 35.42 13.075 35.625H21.925C21.8956 35.83 21.875 36.0375 21.875 36.25C21.875 37.9731 23.2769 39.375 25 39.375H27.5C28.2025 39.375 28.8444 39.1338 29.3662 38.7412C29.905 39.1481 30.5644 39.375 31.25 39.375H33.75C35.4731 39.375 36.875 37.9731 36.875 36.25C36.875 36.0375 36.8544 35.83 36.825 35.625H38.125C38.8144 35.625 39.375 35.0644 39.375 34.375V23.4912L35.8838 20ZM38.125 26.6756L29.0719 18.125H32.2412L38.125 24.0088V26.6756ZM35.9912 18.125L35 19.1163L33.3838 17.5L34.375 16.5087L35.9912 18.125ZM26.4062 15.625L30.5219 29.7362C30.1975 30.0944 30 30.5638 30 31.0756C30 31.2594 30.0294 31.4406 30.0875 31.6131L30.3619 32.4369C30.0006 32.6394 29.6706 32.8969 29.3775 33.1969C29.0681 32.88 28.7131 32.6094 28.3206 32.3975L28.6625 30.9888C28.7206 30.8156 28.75 30.6344 28.75 30.4506C28.75 29.5131 27.9869 28.75 27.0075 28.75C26.8694 28.75 26.7306 28.7669 26.595 28.8013L25.2669 29.1331C24.3737 29.3562 23.75 30.155 23.75 31.0756C23.75 31.2594 23.7794 31.4406 23.8375 31.6131L23.9244 31.875H14.375V15.625H26.4062ZM33.7125 30.6419L33.3894 31.9662C33.1019 31.9069 32.8044 31.875 32.5 31.875C32.1694 31.875 31.845 31.9169 31.53 31.9888L31.2731 31.2169C31.2581 31.1725 31.25 31.1231 31.25 31.0756C31.25 30.7294 31.4844 30.43 31.82 30.3456L33.1481 30.0138C33.1844 30.005 33.2212 30 33.2994 30C33.5481 30 33.75 30.2019 33.75 30.4506C33.75 30.4981 33.7419 30.5475 33.7125 30.6419ZM25.2794 31.9875L25.0225 31.2175C25.0081 31.1725 25 31.1231 25 31.0756C25 30.7294 25.2344 30.43 25.57 30.3456L26.8981 30.0138C26.9344 30.005 26.9712 30 27.0494 30C27.2981 30 27.5 30.2019 27.5 30.4506C27.5 30.4981 27.4919 30.5475 27.4625 30.6425L27.1394 31.9669C26.8519 31.9069 26.5544 31.875 26.25 31.875C25.9163 31.875 25.5925 31.9163 25.2794 31.9875ZM6.875 26.875H5.625V25.625H6.875V26.875ZM8.125 25.625C8.125 24.9356 7.56437 24.375 6.875 24.375H6.1675L7.83437 21.875H10.625V25.625H8.125ZM11.875 31.875V21.875C11.875 21.1856 11.3144 20.625 10.625 20.625H7.83437C7.41563 20.625 7.02688 20.8331 6.79438 21.1819L4.585 24.4963C4.4475 24.7019 4.375 24.9413 4.375 25.1894V31.875H1.875V26.4394L6.58437 19.375H13.125V31.875H11.875ZM27.5 38.125H25C23.9662 38.125 23.125 37.2838 23.125 36.25C23.125 34.5269 24.5269 33.125 26.25 33.125C27.9731 33.125 29.375 34.5269 29.375 36.25C29.375 37.2838 28.5338 38.125 27.5 38.125ZM33.75 38.125H31.25C30.8713 38.125 30.5075 38.005 30.1994 37.7956C30.4625 37.3381 30.625 36.815 30.625 36.25C30.625 35.5181 30.4419 34.8294 30.1231 34.2225C30.7137 33.5294 31.5775 33.125 32.5 33.125C34.2231 33.125 35.625 34.5269 35.625 36.25C35.625 37.2838 34.7837 38.125 33.75 38.125ZM36.4469 34.375C36.0456 33.5344 35.3881 32.8387 34.5706 32.3975L34.9125 30.9888C34.9706 30.8156 35 30.6344 35 30.4506C35 29.5131 34.2369 28.75 33.2575 28.75C33.1194 28.75 32.9806 28.7669 32.845 28.8013L31.6394 29.1025L28.8881 19.6706L38.125 28.3938V34.375H36.4469Z" fill="#262626"/>
</svg>
