<svg width="40" height="40" viewBox="0 0 40 40" fill="none" xmlns="http://www.w3.org/2000/svg">
<path d="M6.73 32.1694C7.22875 31.9831 7.76 31.875 8.31 31.875H8.455C10.1681 31.875 11.7337 32.8431 12.5 34.375L12.1662 34.5125C12.5169 34.4256 12.8787 34.375 13.2494 34.375C15.6312 34.375 17.9619 35.0162 20 36.2212V35.625C20 32.9044 21.1656 30.4625 23.0163 28.75H22.5C21.8094 28.75 21.25 28.1906 21.25 27.5V25.625C20.8638 25.625 20.4856 25.6956 20.1312 25.8319C19.5675 24.9394 18.58 24.375 17.5 24.375C16.42 24.375 15.4325 24.9394 14.8688 25.8319C14.4363 25.6656 13.9731 25.59 13.4931 25.6375C13.0069 24.515 11.8825 23.75 10.625 23.75C9.0975 23.75 7.8225 24.8519 7.5525 26.3025C6.10187 26.5725 5 27.8475 5 29.375C5 30.5969 5.70562 31.6556 6.73 32.1694Z" fill="#38D0C3"/>
<path d="M34.0311 30.0656L33.4648 31.18C33.5536 31.2275 35.6267 32.3831 35.6267 36.875H36.8767C36.8767 31.55 34.1473 30.1244 34.0311 30.0656Z" fill="#262626"/>
<path d="M24.7206 30.0656C24.6044 30.1244 21.875 31.55 21.875 36.875H23.125C23.125 32.3831 25.1981 31.2275 25.2863 31.1806L25 30.625L24.7206 30.0656Z" fill="#262626"/>
<path d="M30.9131 31.9594L30.2812 33.0381C30.355 33.0825 32.0875 34.1556 31.8519 36.82L33.0969 36.93C33.4044 33.4494 31.015 32.0188 30.9131 31.9594Z" fill="#262626"/>
<path d="M25.6245 36.8931L26.8745 36.8569C26.7951 34.155 28.3958 33.07 28.4639 33.025L27.7895 31.9725C27.6964 32.0313 25.5233 33.4525 25.6245 36.8931Z" fill="#262626"/>
<path d="M3.75 23.125V21.875C2.71625 21.875 1.875 21.0338 1.875 20C1.875 18.9662 2.71625 18.125 3.75 18.125H4.375V17.5C4.375 16.4662 5.21625 15.625 6.25 15.625C6.91875 15.625 7.54187 15.9944 7.87687 16.5894L8.08438 16.9581L8.56938 16.8938C8.62813 16.8856 8.68812 16.875 8.75 16.875C9.45375 16.875 10.0831 17.2781 10.4025 17.8781C9.58312 18.3194 8.97812 19.1087 8.8025 20.0525C7.35187 20.3225 6.25 21.5975 6.25 23.125C6.25 24.21 6.81813 25.1931 7.70813 25.7581C7.86 25.3625 8.09625 25.0125 8.38625 24.7125C7.84562 24.375 7.5 23.7806 7.5 23.125C7.5 22.0912 8.34125 21.25 9.375 21.25H10V20.625C10 19.5912 10.8413 18.75 11.875 18.75C12.5437 18.75 13.1669 19.1194 13.5019 19.7144L13.7094 20.0831L14.1944 20.0187C14.2531 20.0106 14.3131 20 14.375 20C15.4087 20 16.25 20.8412 16.25 21.875H17.5C17.5 20.1519 16.0981 18.75 14.375 18.75C14.3706 18.75 14.3663 18.75 14.3619 18.75C13.7756 17.97 12.8556 17.5 11.875 17.5C11.7881 17.5 11.705 17.5156 11.6194 17.5231C11.1344 16.3963 10.01 15.625 8.75 15.625C8.74562 15.625 8.74125 15.625 8.73688 15.625C8.15063 14.845 7.23063 14.375 6.25 14.375C4.7225 14.375 3.4475 15.4769 3.1775 16.9275C1.72688 17.1975 0.625 18.4725 0.625 20C0.625 21.7231 2.02688 23.125 3.75 23.125Z" fill="#262626"/>
<path d="M37.0181 29.2062C37.6688 28.9119 38.125 28.26 38.125 27.5V17.5C38.125 16.4663 37.2837 15.625 36.25 15.625H35.625V3.75C35.625 2.02688 34.2231 0.625 32.5 0.625H26.25C24.5269 0.625 23.125 2.02688 23.125 3.75V15.625H22.5C21.4662 15.625 20.625 16.4663 20.625 17.5V27.5C20.625 28.26 21.0812 28.9119 21.7319 29.2062C20.32 30.8875 19.4956 32.995 19.3975 35.1887C17.49 34.2469 15.3856 33.75 13.2494 33.75C13.1219 33.75 12.9962 33.7663 12.87 33.7756C11.9456 32.2138 10.2919 31.25 8.455 31.25H8.31C6.425 31.25 4.69375 32.2781 3.79125 33.9325L1.50375 38.125H0.625V39.375H22.5H36.25C37.9731 39.375 39.375 37.9731 39.375 36.25V35.625C39.375 33.275 38.5231 30.9994 37.0181 29.2062ZM24.375 3.75C24.375 2.71625 25.2162 1.875 26.25 1.875H32.5C33.5337 1.875 34.375 2.71625 34.375 3.75V15.625H24.375V3.75ZM21.875 17.5C21.875 17.1556 22.1556 16.875 22.5 16.875H36.25C36.5944 16.875 36.875 17.1556 36.875 17.5V27.5C36.875 27.8444 36.5944 28.125 36.25 28.125H22.5C22.1556 28.125 21.875 27.8444 21.875 27.5V17.5ZM19.4113 36.6112C19.4775 37.1763 19.6888 37.6925 20.0156 38.125H9.20187L9.86563 36.9637C10.5581 35.7525 11.8544 35 13.2494 35C15.4081 35 17.53 35.56 19.4113 36.6112ZM4.88812 34.5312C5.57125 33.2781 6.8825 32.5 8.30937 32.5H8.45438C9.69688 32.5 10.8287 33.0831 11.5562 34.0494C10.4019 34.4538 9.40312 35.2531 8.77938 36.3438L7.7625 38.125H2.92812L4.88812 34.5312ZM38.125 36.25C38.125 37.2837 37.2837 38.125 36.25 38.125H22.5C21.4662 38.125 20.625 37.2837 20.625 36.25V35.625C20.625 33.2456 21.57 31.0387 23.2781 29.375H35.4713C37.18 31.0387 38.125 33.2456 38.125 35.625V36.25Z" fill="#262626"/>
<path d="M9.375 28.75H10.625V30H9.375V28.75Z" fill="#262626"/>
<path d="M12.5 28.125H13.75V29.375H12.5V28.125Z" fill="#262626"/>
<path d="M13.75 30.625H15V31.875H13.75V30.625Z" fill="#262626"/>
<path d="M16.875 27.5H18.125V28.75H16.875V27.5Z" fill="#262626"/>
<path d="M18.125 30H19.375V31.25H18.125V30Z" fill="#262626"/>
<path d="M15.625 31.875H16.875V33.125H15.625V31.875Z" fill="#262626"/>
<path d="M31.875 13.125H33.125V14.375H31.875V13.125Z" fill="#262626"/>
<path d="M31.875 3.125H30.625V4.375H31.875V11.875H33.125V4.375C33.125 3.68562 32.5644 3.125 31.875 3.125Z" fill="#262626"/>
</svg>
