<svg width="40" height="40" viewBox="0 0 40 40" fill="none" xmlns="http://www.w3.org/2000/svg">
<path d="M27.2388 17.4193C27.5485 17.0761 27.7421 16.6264 27.7421 16.129C27.7421 15.0619 26.8737 14.1935 25.8066 14.1935C24.7395 14.1935 23.8711 15.0619 23.8711 16.129C23.8711 16.6264 24.0653 17.0761 24.3743 17.4193H27.2388Z" fill="#38D0C3"/>
<path d="M36.1314 11.6129C34.7082 11.6129 33.5508 10.4555 33.5508 9.03226C33.5508 7.60903 34.7082 6.45161 36.1314 6.45161C37.5547 6.45161 38.7121 7.60903 38.7121 9.03226C38.7121 10.4555 37.5547 11.6129 36.1314 11.6129Z" fill="#38D0C3"/>
<path d="M22.6626 12.8458C22.9845 11.4039 24.2677 10.3226 25.8065 10.3226C25.9994 10.3226 26.1871 10.3432 26.371 10.3761C26.4213 10.1465 26.4516 9.9129 26.4516 9.67742C26.4516 7.89871 25.0045 6.45161 23.2258 6.45161C21.4471 6.45161 20 7.89871 20 9.67742C20 11.2368 21.1387 12.5755 22.6626 12.8458Z" fill="#38D0C3"/>
<path d="M12.2584 3.87097C12.6148 3.87097 12.9036 3.58212 12.9036 3.2258C12.9036 2.86949 12.6148 2.58064 12.2584 2.58064C11.9021 2.58064 11.6133 2.86949 11.6133 3.2258C11.6133 3.58212 11.9021 3.87097 12.2584 3.87097Z" fill="#262626"/>
<path d="M38.4135 30.7129L37.4194 30.4645V21.9355C38.131 21.9355 38.7097 21.3568 38.7097 20.6452V18.0645C38.7097 17.3529 38.131 16.7742 37.4194 16.7742H37.349C37.0877 15.4981 36.0761 14.4916 34.7942 14.2497C34.509 12.3935 32.9019 10.9677 30.9677 10.9677C30.2981 10.9677 29.6452 11.1419 29.0703 11.4671C28.3664 10.3723 27.1374 9.67742 25.8064 9.67742C23.8781 9.67742 22.2742 11.0948 21.9826 12.9426C19.9858 13.2077 18.4019 14.7839 18.1148 16.7742H18.0645C17.3529 16.7742 16.7742 17.3529 16.7742 18.0645V20.6452C16.7742 21.3568 17.3529 21.9355 18.0645 21.9355V27.0968H15.4839C15.4839 26.3852 14.9052 25.8064 14.1935 25.8064V7.74193C14.9052 7.74193 15.4839 7.16323 15.4839 6.45161V3.22581C15.4839 1.4471 14.0368 0 12.2581 0C10.4794 0 9.03226 1.4471 9.03226 3.22581V6.45161C9.03226 7.16323 9.61097 7.74193 10.3226 7.74193V25.8064C9.61097 25.8064 9.03226 26.3852 9.03226 27.0968H1.93548C0.868387 27.0968 0 27.9652 0 29.0323V38.0645C0 39.1316 0.868387 40 1.93548 40H22.5806C23.4206 40 24.1303 39.4587 24.3974 38.7097H35.4839C36.551 38.7097 37.4194 37.8413 37.4194 36.7742V34.8219C37.5813 34.831 37.7432 34.8387 37.9058 34.8387C38.4652 34.8387 38.9916 34.6206 39.3871 34.2245C39.7826 33.829 40.0006 33.3026 40 32.7426C39.9994 31.7806 39.3465 30.9458 38.4135 30.7129ZM36.129 33.3187C36.0406 33.2968 35.9497 33.2871 35.8619 33.2619C31.4606 32.0039 28.3865 27.9284 28.3865 23.3516L28.3871 21.9355H36.129V33.3187ZM26.4516 19.3548C26.4516 18.6432 27.0303 18.0645 27.7419 18.0645C28.4535 18.0645 29.0323 18.6432 29.0323 19.3548C29.0323 20.0665 28.4535 20.6452 27.7419 20.6452C27.0303 20.6452 26.4516 20.0665 26.4516 19.3548ZM37.42 20.6452H29.9639C30.1858 20.2639 30.3226 19.8271 30.3226 19.3548C30.3226 18.8826 30.1858 18.4458 29.9639 18.0645H37.4194L37.42 20.6452ZM22.5806 14.1935H23.2258V13.5484C23.2258 12.1252 24.3832 10.9677 25.8064 10.9677C26.8787 10.9677 27.8516 11.6445 28.2284 12.6516L28.5574 13.5329L29.2613 12.9084C29.74 12.4832 30.3303 12.2581 30.9677 12.2581C32.391 12.2581 33.5484 13.4155 33.5484 14.8387V15.4839H34.1935C35.0335 15.4839 35.7432 16.0252 36.0103 16.7742H19.42C19.72 15.3039 21.0232 14.1935 22.5806 14.1935ZM18.0645 18.0645H25.52C25.2981 18.4458 25.1613 18.8826 25.1613 19.3548C25.1613 19.8271 25.2981 20.2639 25.52 20.6452H18.0645V18.0645ZM15.4839 30.9677H19.3548V32.2581H15.4839V30.9677ZM10.3226 3.22581C10.3226 2.15871 11.191 1.29032 12.2581 1.29032C13.3252 1.29032 14.1935 2.15871 14.1935 3.22581L14.1942 6.45161H10.3226V3.22581ZM11.6129 7.74193H12.9032V25.8064H11.6129V7.74193ZM14.1935 27.0968V32.2581H10.3226V27.0968H14.1935ZM9.03226 32.2581H5.16129V30.9677H9.03226V32.2581ZM1.93548 28.3871H9.03226V29.6774H5.16129C4.44968 29.6774 3.87097 30.2561 3.87097 30.9677V32.2581C3.87097 32.9697 4.44968 33.5484 5.16129 33.5484H19.3548C20.0665 33.5484 20.6452 32.9697 20.6452 32.2581V30.9677C20.6452 30.2561 20.0665 29.6774 19.3548 29.6774H15.4839V28.3871H22.5806C22.9368 28.3871 23.2258 28.6768 23.2258 29.0323V36.129H1.29032V29.0323C1.29032 28.6768 1.57935 28.3871 1.93548 28.3871ZM22.5806 38.7097H1.93548C1.57935 38.7097 1.29032 38.42 1.29032 38.0645V37.4193H23.2258V38.0645C23.2258 38.42 22.9368 38.7097 22.5806 38.7097ZM36.129 36.7742C36.129 37.1297 35.84 37.4193 35.4839 37.4193H24.5161V29.0323C24.5161 27.9652 23.6477 27.0968 22.5806 27.0968H19.3548V21.9355H27.0968L27.0961 23.3516C27.0961 28.5019 30.5548 33.0877 35.5077 34.5032C35.7129 34.5619 35.9206 34.6116 36.129 34.6555V36.7742ZM38.4748 33.3129C38.3226 33.4645 38.1206 33.5484 37.9058 33.5484C37.7426 33.5484 37.5819 33.5252 37.4194 33.5142V31.7942L38.1013 31.9645C38.4594 32.0542 38.709 32.3742 38.7097 32.7439C38.7097 32.9587 38.6264 33.1606 38.4748 33.3129Z" fill="#262626"/>
<path d="M29.6796 7.74193C27.5447 7.74193 25.8086 6.00581 25.8086 3.87097C25.8086 1.73613 27.5447 0 29.6796 0C31.8144 0 33.5505 1.73613 33.5505 3.87097C33.5505 6.00581 31.8144 7.74193 29.6796 7.74193Z" fill="#38D0C3"/>
</svg>
