<svg width="40" height="40" viewBox="0 0 40 40" fill="none" xmlns="http://www.w3.org/2000/svg">
<g clip-path="url(#clip0)">
<path d="M27.825 39.7347C26.7648 39.7347 25.9023 38.8719 25.9023 37.812C25.9023 36.7521 26.7648 35.8894 27.825 35.8894C28.8849 35.8894 29.7476 36.7521 29.7476 37.812C29.7476 38.8719 28.8849 39.7347 27.825 39.7347Z" fill="#38D0C3"/>
<path d="M37.4383 39.7347C36.3781 39.7347 35.5156 38.8719 35.5156 37.812C35.5156 36.7521 36.3781 35.8894 37.4383 35.8894C38.4982 35.8894 39.3609 36.7521 39.3609 37.812C39.3609 38.8719 38.4982 39.7347 37.4383 39.7347Z" fill="#38D0C3"/>
<path d="M32.3106 30.7623C29.4836 30.7623 27.1836 28.4623 27.1836 25.6353C27.1836 22.8083 29.4836 20.5082 32.3106 20.5082C35.1377 20.5082 37.4377 22.8083 37.4377 25.6353C37.4377 28.4623 35.1377 30.7623 32.3106 30.7623ZM32.3106 24.9944C31.6037 24.9944 31.0289 25.5693 31.0289 26.2762C31.0289 26.9831 31.6037 27.5579 32.3106 27.5579C33.0176 27.5579 33.5924 26.9831 33.5924 26.2762C33.5924 25.5693 33.0176 24.9944 32.3106 24.9944Z" fill="#38D0C3"/>
<path d="M34.2316 18.1979V6.72926C34.2316 3.01853 31.2131 0 27.5024 0C23.7917 0 20.7731 3.01853 20.7731 6.72926V16.4079L12.1219 25.0501L10.0043 22.9328L7.02734 24.4208L7.60095 25.5674L9.75109 24.4918L15.5062 30.2469L14.431 32.3971L15.5775 32.9707L17.0655 29.9938L14.9501 27.8784L23.6803 19.1482C24.2851 18.5433 24.6184 17.7391 24.6184 16.8826V6.72926C24.6184 5.13926 25.9124 3.84529 27.5024 3.84529C29.0924 3.84529 30.3864 5.13926 30.3864 6.72926V18.1979C27.0749 19.0547 24.6184 22.0597 24.6184 25.6353V28.1988H22.0549V34.6076H24.6184V37.1711H39.9996V25.6353C39.9996 22.0597 37.5431 19.0547 34.2316 18.1979ZM13.0281 25.9563L14.9063 24.08L15.9208 25.0952L14.0432 26.9727L13.0281 25.9563ZM27.5024 2.56353C25.2055 2.56353 23.3367 4.43235 23.3367 6.72926V16.8826C23.3367 17.3889 23.1317 17.8837 22.774 18.242L16.8277 24.1883L15.8132 23.1738L21.6781 17.3148C21.9216 17.0732 22.0549 16.7509 22.0549 16.4085V6.72926C22.0549 3.72544 24.4986 1.28176 27.5024 1.28176C30.5062 1.28176 32.9499 3.72544 32.9499 6.72926V17.9772C32.7377 17.9594 32.5255 17.9447 32.309 17.9447C32.0925 17.9447 31.8803 17.9594 31.6681 17.9772V6.72926C31.6681 4.43235 29.7993 2.56353 27.5024 2.56353ZM32.309 19.2265C35.8429 19.2265 38.7178 22.1013 38.7178 25.6353V32.0441H25.9002V25.6353C25.9002 22.1013 28.7751 19.2265 32.309 19.2265ZM24.6184 29.4806V30.7623H23.3367V29.4806H24.6184ZM23.3367 33.3259V32.0441H24.6184V33.3259H23.3367ZM25.9002 35.8894V33.3259H38.7178V35.8894H25.9002Z" fill="#262626"/>
<path d="M32.3094 28.1988C33.3693 28.1988 34.232 27.336 34.232 26.2761C34.232 25.2163 33.3693 24.3535 32.3094 24.3535C31.2492 24.3535 30.3867 25.2163 30.3867 26.2761C30.3867 27.336 31.2492 28.1988 32.3094 28.1988ZM32.3094 25.6353C32.6623 25.6353 32.9502 25.9232 32.9502 26.2761C32.9502 26.6291 32.6623 26.917 32.3094 26.917C31.9561 26.917 31.6685 26.6291 31.6685 26.2761C31.6685 25.9232 31.9561 25.6353 32.3094 25.6353Z" fill="#262626"/>
<path d="M27.1836 29.4806H28.4654V30.7623H27.1836V29.4806Z" fill="#262626"/>
<path d="M36.1523 29.4806H37.4341V30.7623H36.1523V29.4806Z" fill="#262626"/>
<path d="M13.7239 40L0 26.2762L2.1104 24.1658C2.81544 23.4601 3.7536 23.0717 4.75154 23.0717C5.74947 23.0717 6.68764 23.4601 7.39267 24.1658L15.8343 32.6074C16.5399 33.3124 16.9283 34.2506 16.9283 35.2485C16.9283 36.2464 16.5399 37.1846 15.8343 37.8896L13.7239 40Z" fill="#38D0C3"/>
</g>
<defs>
<clipPath id="clip0">
<rect width="40" height="40" fill="white"/>
</clipPath>
</defs>
</svg>
